<?xml version="1.0" encoding="utf-8"?>
<!-- Generator: Adobe Illustrator 17.0.0, SVG Export Plug-In . SVG Version: 6.00 Build 0)  -->
<!DOCTYPE svg PUBLIC "-//W3C//DTD SVG 1.1//EN" "http://www.w3.org/Graphics/SVG/1.1/DTD/svg11.dtd">
<svg version="1.1" id="Camada_1" xmlns="http://www.w3.org/2000/svg" xmlns:xlink="http://www.w3.org/1999/xlink" x="0px" y="0px"
	 width="595px" height="389.201px" viewBox="0 0 595 389.201" enable-background="new 0 0 595 389.201" xml:space="preserve">
<g>
	<path fill-rule="evenodd" clip-rule="evenodd" fill="#FFFFFF" d="M526.718,302.857h-36.676l-39.115-35.726v35.726h-31.79v-76.448
		h45.523l1.68,0.005l1.654,0.016l1.627,0.026l1.601,0.037l1.574,0.047l1.548,0.058l1.522,0.069l1.495,0.079l1.469,0.089l1.442,0.1
		l1.415,0.111l1.389,0.121l1.362,0.132l1.336,0.143l1.309,0.153l1.283,0.164l1.256,0.174l1.229,0.184l1.203,0.195l1.176,0.206
		l1.149,0.216l1.122,0.227l1.096,0.237l1.069,0.248l1.042,0.258l1.016,0.269l0.989,0.279l0.963,0.29l0.936,0.3l0.909,0.312
		l0.882,0.322l0.855,0.333l0.832,0.343l0.806,0.354l0.779,0.364l0.753,0.375l0.726,0.385l0.7,0.397l0.673,0.407l0.647,0.418
		l0.62,0.429l0.594,0.439l0.568,0.45l0.541,0.461l0.515,0.471l0.489,0.482l0.462,0.493l0.436,0.504l0.409,0.514l0.383,0.525
		l0.357,0.535l0.33,0.546l0.303,0.556l0.277,0.567l0.251,0.578l0.225,0.589l0.198,0.599l0.172,0.61l0.145,0.62l0.119,0.631
		l0.092,0.641l0.066,0.652l0.04,0.663l0.013,0.674l-0.009,0.49l-0.027,0.486l-0.046,0.481l-0.063,0.477l-0.082,0.473l-0.099,0.468
		l-0.118,0.464l-0.135,0.46l-0.154,0.454l-0.172,0.45l-0.19,0.446l-0.208,0.441l-0.226,0.437l-0.244,0.432l-0.262,0.428l-0.28,0.424
		l-0.299,0.418l-0.316,0.414l-0.334,0.41l-0.353,0.405l-0.371,0.4l-0.389,0.397L514,258.23l-0.425,0.388L513.133,259l-0.461,0.378
		l-0.479,0.374l-0.497,0.37l-0.515,0.365l-0.533,0.361l-0.552,0.356l-0.569,0.352l-0.581,0.344l-0.591,0.336l-0.602,0.326
		l-0.613,0.318l-0.624,0.308l-0.634,0.299l-0.645,0.29l-0.656,0.281l-0.667,0.272l-0.677,0.263l-0.688,0.253l-0.698,0.245
		l-0.709,0.236l-0.719,0.227l-0.73,0.217l-0.74,0.208l-0.752,0.199l-0.762,0.19l-0.772,0.181l-0.783,0.172l-0.794,0.163
		l-0.803,0.154l-0.815,0.145l-0.825,0.136l-0.836,0.126l-0.845,0.117l-0.856,0.109l-0.866,0.099l-0.877,0.09l-0.888,0.082
		l-0.898,0.072l-0.915,0.064L526.718,302.857L526.718,302.857z M450.928,258.994h4.788l1.193-0.002l1.168-0.007l1.142-0.011
		l1.116-0.015l1.09-0.02l1.065-0.023l1.039-0.028l1.014-0.032l0.989-0.037l0.963-0.04l0.937-0.045l0.912-0.049l0.885-0.053
		l0.861-0.057l0.835-0.061l0.81-0.066l0.783-0.071l0.758-0.075l0.732-0.079l0.707-0.083l0.681-0.087l0.656-0.091l0.63-0.095
		l0.605-0.099l0.579-0.104l0.554-0.108l0.527-0.112l0.502-0.116l0.477-0.121l0.451-0.125l0.425-0.129l0.4-0.133l0.381-0.139
		l0.369-0.145l0.357-0.151l0.345-0.157l0.333-0.164l0.321-0.17l0.309-0.176l0.297-0.182l0.284-0.189l0.273-0.195l0.26-0.201
		l0.249-0.207l0.236-0.214l0.225-0.22l0.212-0.226l0.201-0.232l0.188-0.239l0.176-0.245l0.164-0.251l0.152-0.258l0.14-0.264
		l0.128-0.27l0.115-0.276l0.104-0.283l0.091-0.289l0.08-0.295l0.067-0.302l0.055-0.308l0.043-0.314l0.031-0.32l0.018-0.327
		l0.006-0.332l-0.007-0.35l-0.019-0.343l-0.033-0.337l-0.045-0.33l-0.059-0.325l-0.071-0.318l-0.085-0.311l-0.097-0.304
		l-0.111-0.299l-0.123-0.292l-0.137-0.286l-0.149-0.279l-0.163-0.274l-0.175-0.266l-0.189-0.26l-0.201-0.253l-0.215-0.248
		l-0.228-0.241l-0.241-0.235l-0.253-0.228l-0.267-0.222l-0.279-0.216l-0.293-0.209l-0.305-0.202l-0.319-0.197l-0.332-0.19
		l-0.345-0.184l-0.357-0.177l-0.371-0.172l-0.384-0.164l-0.397-0.158l-0.409-0.151l-0.428-0.147l-0.451-0.142l-0.474-0.137
		l-0.496-0.132l-0.519-0.128l-0.542-0.123l-0.565-0.118l-0.588-0.113l-0.611-0.109l-0.634-0.104l-0.657-0.1l-0.679-0.094
		l-0.703-0.09l-0.726-0.085l-0.748-0.081l-0.771-0.076l-0.795-0.072l-0.817-0.067l-0.84-0.063l-0.862-0.057l-0.886-0.053
		l-0.908-0.048l-0.931-0.044l-0.954-0.039l-0.977-0.035l-0.999-0.03l-1.022-0.026l-1.045-0.021l-1.068-0.016l-1.091-0.011
		l-1.113-0.007l-1.136-0.002h-4.788V258.994z"/>
	<path fill-rule="evenodd" clip-rule="evenodd" fill="#FFFFFF" d="M335.466,260.919h4.58l0.805-0.003l0.792-0.008l0.778-0.014
		l0.764-0.019l0.749-0.025l0.736-0.03l0.722-0.035l0.708-0.04l0.694-0.047l0.68-0.051l0.666-0.057l0.652-0.062l0.638-0.068
		l0.624-0.073l0.61-0.078l0.596-0.083l0.582-0.09l0.568-0.094l0.554-0.1l0.541-0.105l0.527-0.111l0.513-0.116l0.499-0.122
		l0.485-0.126l0.471-0.132l0.457-0.138l0.443-0.143l0.43-0.148l0.416-0.154l0.402-0.159l0.388-0.164l0.375-0.169l0.362-0.177
		l0.35-0.184l0.339-0.19l0.327-0.196l0.316-0.203l0.305-0.21l0.293-0.216l0.282-0.222l0.271-0.229l0.259-0.235l0.247-0.242
		l0.236-0.248l0.225-0.255l0.213-0.261l0.202-0.268l0.19-0.274l0.178-0.281l0.168-0.287l0.156-0.293l0.144-0.3l0.133-0.307
		l0.121-0.313l0.11-0.32l0.098-0.325l0.087-0.333l0.075-0.339l0.064-0.346l0.052-0.352l0.04-0.359l0.029-0.365l0.017-0.371
		l0.006-0.378l-0.006-0.35l-0.017-0.344l-0.029-0.338l-0.04-0.331l-0.052-0.325l-0.064-0.32l-0.075-0.313l-0.087-0.307l-0.098-0.302
		l-0.11-0.296l-0.121-0.289l-0.133-0.284l-0.145-0.277l-0.155-0.271l-0.168-0.266l-0.178-0.259l-0.19-0.254l-0.202-0.247
		l-0.213-0.242l-0.225-0.236l-0.236-0.23l-0.247-0.224l-0.259-0.218l-0.27-0.212l-0.282-0.207l-0.293-0.2l-0.305-0.194l-0.316-0.188
		l-0.327-0.183l-0.339-0.177l-0.35-0.171l-0.362-0.165l-0.375-0.16l-0.388-0.154l-0.402-0.15l-0.416-0.144l-0.43-0.14l-0.443-0.134
		l-0.458-0.13l-0.471-0.123l-0.485-0.119l-0.499-0.114l-0.513-0.109l-0.527-0.103l-0.541-0.099l-0.554-0.093l-0.568-0.088
		l-0.582-0.083l-0.596-0.079l-0.61-0.073l-0.624-0.068l-0.638-0.063l-0.652-0.058l-0.666-0.053l-0.68-0.048l-0.694-0.042
		l-0.708-0.038l-0.722-0.033l-0.736-0.027l-0.749-0.023l-0.764-0.018l-0.778-0.012l-0.792-0.008l-0.805-0.002h-4.58V260.919
		L335.466,260.919z M303.469,302.857v-76.448h36.577l1.812,0.005l1.782,0.017l1.753,0.028l1.723,0.039l1.693,0.05l1.663,0.062
		l1.634,0.073l1.604,0.084l1.574,0.095l1.545,0.106l1.514,0.117l1.485,0.129l1.455,0.139l1.425,0.151l1.395,0.163l1.366,0.174
		l1.335,0.185l1.306,0.196l1.276,0.207l1.246,0.219l1.216,0.23l1.186,0.241l1.156,0.252l1.126,0.264l1.096,0.274l1.066,0.286
		l1.036,0.297l1.007,0.309l0.976,0.32l0.946,0.331l0.916,0.342l0.887,0.354l0.86,0.365l0.833,0.378l0.806,0.39l0.779,0.402
		l0.751,0.414l0.724,0.427l0.696,0.438l0.669,0.451l0.641,0.463l0.615,0.475l0.586,0.488l0.56,0.5l0.532,0.512l0.505,0.525
		l0.477,0.536l0.45,0.549l0.422,0.56l0.395,0.573l0.368,0.585l0.341,0.597l0.313,0.61l0.287,0.622l0.259,0.634l0.232,0.646
		l0.204,0.658l0.177,0.671l0.15,0.683l0.123,0.696l0.095,0.707l0.069,0.72l0.04,0.732l0.014,0.744l-0.014,0.69l-0.041,0.681
		l-0.069,0.671l-0.096,0.663l-0.124,0.653l-0.151,0.643l-0.178,0.634l-0.206,0.625l-0.234,0.615l-0.261,0.606l-0.289,0.596
		l-0.315,0.588l-0.344,0.577l-0.371,0.569l-0.398,0.559l-0.425,0.55l-0.454,0.54l-0.48,0.531l-0.509,0.522l-0.536,0.513
		l-0.563,0.503l-0.591,0.494l-0.619,0.484l-0.646,0.476l-0.674,0.465l-0.702,0.457l-0.729,0.447l-0.756,0.438l-0.785,0.428
		l-0.811,0.419l-0.84,0.41l-0.867,0.401l-0.888,0.388l-0.91,0.376l-0.931,0.363l-0.952,0.352l-0.974,0.339l-0.995,0.326
		l-1.016,0.314l-1.037,0.302l-1.058,0.289l-1.08,0.277l-1.101,0.265l-1.122,0.253l-1.143,0.24l-1.164,0.228l-1.186,0.215
		l-1.206,0.204l-1.228,0.191l-1.249,0.179l-1.27,0.166l-1.291,0.155l-1.313,0.141l-1.333,0.13l-1.354,0.117l-1.375,0.105
		l-1.397,0.092l-1.418,0.08l-1.439,0.068l-1.459,0.056l-1.481,0.043l-1.501,0.031l-1.522,0.018l-1.543,0.007h-8.741v29.198H303.469z
		"/>
	<polygon fill-rule="evenodd" clip-rule="evenodd" fill="#FFFFFF" points="194.664,302.857 194.664,226.409 277.667,226.409 
		277.667,236.956 218.826,236.956 218.826,256.017 277.667,256.017 277.667,266.921 218.826,266.921 218.826,302.857 	"/>
	<polygon fill-rule="evenodd" clip-rule="evenodd" fill="#FFFFFF" points="47.616,226.409 71.465,226.409 71.465,272.824 
		71.475,273.465 71.502,274.097 71.547,274.718 71.61,275.33 71.692,275.931 71.791,276.522 71.909,277.103 72.044,277.674 
		72.199,278.235 72.371,278.786 72.562,279.327 72.77,279.858 72.996,280.378 73.241,280.889 73.504,281.39 73.785,281.881 
		74.084,282.361 74.401,282.831 74.737,283.292 75.091,283.742 75.463,284.183 75.853,284.613 76.262,285.034 76.688,285.444 
		77.134,285.845 77.597,286.235 78.079,286.616 78.578,286.987 79.097,287.347 79.632,287.698 80.187,288.039 80.76,288.37 
		81.35,288.689 81.959,288.998 82.586,289.297 83.23,289.585 83.893,289.864 84.573,290.133 85.271,290.391 85.987,290.639 
		86.721,290.877 87.472,291.105 88.242,291.323 89.03,291.531 89.835,291.728 90.658,291.916 91.499,292.093 92.358,292.261 
		93.236,292.418 94.13,292.564 95.043,292.701 95.973,292.828 96.922,292.944 97.888,293.051 98.872,293.147 99.874,293.233 
		100.894,293.309 101.932,293.375 102.987,293.431 104.061,293.476 105.153,293.512 106.261,293.537 107.389,293.553 
		108.533,293.558 109.676,293.553 110.799,293.537 111.906,293.512 112.993,293.476 114.064,293.431 115.117,293.375 
		116.152,293.309 117.168,293.233 118.167,293.147 119.148,293.051 120.112,292.944 121.057,292.828 121.986,292.701 
		122.895,292.564 123.787,292.418 124.661,292.261 125.518,292.093 126.357,291.916 127.179,291.728 127.982,291.531 
		128.767,291.323 129.535,291.105 130.285,290.877 131.018,290.639 131.732,290.391 132.43,290.133 133.109,289.864 133.77,289.585 
		134.414,289.297 135.04,288.998 135.648,288.689 136.239,288.37 136.812,288.039 137.367,287.698 137.903,287.347 138.421,286.987 
		138.921,286.616 139.402,286.235 139.865,285.845 140.31,285.444 140.737,285.034 141.145,284.613 141.536,284.183 
		141.908,283.742 142.261,283.292 142.597,282.831 142.915,282.361 143.214,281.881 143.495,281.39 143.758,280.889 
		144.003,280.378 144.229,279.858 144.438,279.327 144.628,278.786 144.8,278.235 144.954,277.674 145.09,277.103 145.208,276.522 
		145.307,275.931 145.388,275.33 145.452,274.718 145.497,274.097 145.524,273.465 145.533,272.824 145.533,226.409 
		169.694,226.409 169.694,273.982 169.68,274.944 169.635,275.89 169.561,276.821 169.457,277.737 169.324,278.637 169.16,279.522 
		168.967,280.393 168.745,281.247 168.493,282.087 168.211,282.911 167.899,283.72 167.557,284.514 167.186,285.292 
		166.785,286.056 166.354,286.804 165.894,287.537 165.404,288.254 164.884,288.957 164.334,289.644 163.754,290.315 
		163.145,290.972 162.506,291.614 161.837,292.239 161.139,292.851 160.41,293.446 159.652,294.026 158.863,294.591 
		158.045,295.141 157.198,295.676 156.32,296.196 155.412,296.7 154.475,297.189 153.507,297.662 152.51,298.121 151.482,298.564 
		150.423,298.993 149.335,299.407 148.216,299.805 147.067,300.189 145.888,300.557 144.679,300.91 143.439,301.249 142.17,301.572 
		140.87,301.88 139.54,302.174 138.18,302.452 136.791,302.715 135.37,302.964 133.92,303.197 132.44,303.415 130.93,303.617 
		129.39,303.806 127.82,303.979 126.219,304.137 124.589,304.28 122.928,304.407 121.238,304.52 119.518,304.618 117.768,304.701 
		115.988,304.768 114.178,304.821 112.338,304.859 110.468,304.881 108.568,304.889 106.665,304.881 104.793,304.859 
		102.951,304.821 101.139,304.768 99.358,304.701 97.607,304.618 95.886,304.52 94.195,304.408 92.535,304.28 90.905,304.137 
		89.305,303.979 87.736,303.807 86.197,303.619 84.688,303.416 83.21,303.199 81.762,302.966 80.345,302.718 78.958,302.455 
		77.601,302.177 76.275,301.885 74.979,301.577 73.713,301.255 72.478,300.917 71.273,300.565 70.099,300.197 68.955,299.815 
		67.842,299.417 66.759,299.005 65.707,298.578 64.685,298.136 63.693,297.678 62.732,297.207 61.801,296.719 60.899,296.217 
		60.028,295.698 59.186,295.165 58.373,294.616 57.591,294.053 56.837,293.473 56.113,292.878 55.42,292.268 54.755,291.642 
		54.121,291.001 53.516,290.345 52.94,289.674 52.394,288.986 51.878,288.284 51.39,287.566 50.933,286.832 50.505,286.084 
		50.107,285.32 49.739,284.54 49.4,283.745 49.09,282.935 48.81,282.109 48.559,281.268 48.338,280.411 48.146,279.539 
		47.985,278.651 47.852,277.748 47.749,276.83 47.675,275.896 47.631,274.947 47.616,273.982 	"/>
</g>
<rect x="47.375" y="315.892" fill-rule="evenodd" clip-rule="evenodd" fill="#FFFFFF" width="479.637" height="4.112"/>
<path fill-rule="evenodd" clip-rule="evenodd" fill="#FFFFFF" d="M47.496,329.534h3.17v9.524c0,1.416,0.41,2.476,1.235,3.189
	c0.825,0.71,2.055,1.064,3.691,1.064c1.632,0,2.857-0.355,3.682-1.064c0.825-0.713,1.235-1.774,1.235-3.189v-9.524h3.213v9.762
	c0,2.121-0.673,3.709-2.023,4.762c-1.35,1.053-3.387,1.58-6.102,1.58c-2.719,0-4.751-0.527-6.093-1.576
	c-1.341-1.05-2.009-2.637-2.009-4.766V329.534L47.496,329.534z M68.151,345.22v-16.308l12.553,9.59
	c0.346,0.271,0.691,0.56,1.042,0.867c0.35,0.307,0.719,0.655,1.106,1.042v-10.877h2.972v16.297l-12.811-9.761
	c-0.342-0.264-0.673-0.541-0.991-0.834c-0.323-0.296-0.626-0.6-0.912-0.921v10.906H68.151L68.151,345.22z M90.414,345.22v-15.687
	h3.212v15.687H90.414L90.414,345.22z M104.521,345.831l-8.816-16.297h3.336l4.429,8.357c0.258,0.487,0.474,0.932,0.645,1.346
	c0.171,0.41,0.309,0.801,0.406,1.174c0.12-0.395,0.267-0.801,0.447-1.221c0.18-0.424,0.392-0.856,0.636-1.298l4.41-8.357h3.323
	L104.521,345.831L104.521,345.831z M115.337,345.22v-15.687h11.033v2.165h-7.821v3.932h7.821v2.238h-7.821v5.069h7.821v2.282
	H115.337L115.337,345.22z M133.264,336.219h0.581c1.7,0,2.829-0.157,3.387-0.472c0.558-0.315,0.839-0.871,0.839-1.672
	c0-0.863-0.3-1.47-0.899-1.825c-0.599-0.355-1.71-0.53-3.327-0.53h-0.581V336.219L133.264,336.219z M133.062,338.202v7.018h-3.01
	v-15.687h4.48c1.313,0,2.336,0.07,3.06,0.205c0.723,0.135,1.341,0.358,1.857,0.673c0.613,0.38,1.083,0.871,1.419,1.47
	c0.332,0.6,0.498,1.254,0.498,1.971c0,1.255-0.382,2.238-1.147,2.952c-0.765,0.71-1.899,1.137-3.392,1.28l6.807,7.136h-3.632
	l-6.576-7.018H133.062L133.062,338.202z M144.403,342.078l2.562-0.94c0.244,0.698,0.692,1.232,1.337,1.598
	c0.65,0.369,1.479,0.552,2.484,0.552c0.954,0,1.714-0.212,2.276-0.633c0.562-0.421,0.844-0.984,0.844-1.69
	c0-0.922-0.963-1.744-2.89-2.465c-0.272-0.106-0.475-0.186-0.622-0.234c-2.175-0.845-3.627-1.606-4.35-2.29
	c-0.724-0.681-1.088-1.518-1.088-2.502c0-1.28,0.548-2.315,1.64-3.109c1.092-0.793,2.525-1.189,4.3-1.189
	c1.456,0,2.678,0.223,3.659,0.669c0.981,0.446,1.659,1.09,2.037,1.924l-2.512,1.028c-0.396-0.494-0.83-0.852-1.304-1.079
	c-0.47-0.23-1.014-0.344-1.627-0.344c-0.862,0-1.549,0.179-2.056,0.534c-0.511,0.359-0.765,0.838-0.765,1.437
	c0,0.944,1.115,1.821,3.35,2.633c0.17,0.066,0.304,0.117,0.401,0.15c1.954,0.717,3.295,1.415,4.028,2.095
	c0.729,0.684,1.092,1.536,1.092,2.557c0,1.485-0.59,2.666-1.77,3.54c-1.18,0.874-2.77,1.313-4.779,1.313
	c-1.682,0-3.06-0.307-4.138-0.922C145.44,344.101,144.735,343.223,144.403,342.078L144.403,342.078z M160.767,345.22v-15.687h3.212
	v15.687H160.767L160.767,345.22z M171.809,342.916h2.701c1.484,0,2.599-0.077,3.341-0.234c0.742-0.157,1.387-0.424,1.94-0.794
	c0.747-0.508,1.304-1.137,1.678-1.891c0.373-0.754,0.562-1.631,0.562-2.633c0-0.998-0.189-1.876-0.562-2.63
	c-0.373-0.753-0.931-1.382-1.678-1.89c-0.558-0.37-1.23-0.637-2.005-0.794c-0.779-0.157-2-0.234-3.654-0.234h-1.161h-1.162V342.916
	L171.809,342.916z M168.597,345.22v-15.687h4.332c2.82,0,4.802,0.113,5.95,0.337c1.148,0.227,2.152,0.603,3.018,1.13
	c1.143,0.695,2.01,1.583,2.6,2.67c0.59,1.086,0.884,2.326,0.884,3.716c0,1.393-0.295,2.63-0.884,3.705
	c-0.59,1.075-1.457,1.96-2.6,2.663c-0.866,0.527-1.848,0.903-2.949,1.13c-1.106,0.223-2.82,0.336-5.152,0.336h-0.867H168.597
	L168.597,345.22z M192.75,339.057h5.507l-2.023-3.577c-0.116-0.23-0.24-0.494-0.364-0.79c-0.124-0.296-0.254-0.625-0.378-0.991
	c-0.111,0.344-0.221,0.666-0.346,0.962c-0.12,0.296-0.244,0.567-0.368,0.819L192.75,339.057L192.75,339.057z M201.635,345.22
	l-2.244-4.041h-7.826l-2.295,4.041h-3.378l9.572-16.308l9.558,16.308H201.635L201.635,345.22z M210.101,342.916h2.701
	c1.484,0,2.599-0.077,3.341-0.234c0.742-0.157,1.387-0.424,1.94-0.794c0.747-0.508,1.304-1.137,1.677-1.891
	c0.373-0.754,0.562-1.631,0.562-2.633c0-0.998-0.189-1.876-0.562-2.63c-0.373-0.753-0.931-1.382-1.677-1.89
	c-0.558-0.37-1.231-0.637-2.005-0.794c-0.778-0.157-2-0.234-3.654-0.234h-1.161h-1.161V342.916L210.101,342.916z M206.889,345.22
	v-15.687h4.332c2.82,0,4.802,0.113,5.949,0.337c1.148,0.227,2.152,0.603,3.019,1.13c1.143,0.695,2.009,1.583,2.6,2.67
	c0.59,1.086,0.884,2.326,0.884,3.716c0,1.393-0.295,2.63-0.884,3.705c-0.59,1.075-1.457,1.96-2.6,2.663
	c-0.866,0.527-1.848,0.903-2.949,1.13c-1.106,0.223-2.82,0.336-5.152,0.336h-0.867H206.889L206.889,345.22z M227.355,345.22v-15.687
	h11.033v2.165h-7.821v3.932h7.821v2.238h-7.821v5.069h7.821v2.282H227.355L227.355,345.22z M250.416,345.22v-15.687h11.033v2.165
	h-7.82v3.91h7.82v2.238h-7.82v7.373H250.416L250.416,345.22z M264.928,345.22v-15.687h11.033v2.165h-7.821v3.932h7.821v2.238h-7.821
	v5.069h7.821v2.282H264.928L264.928,345.22z M282.855,342.916h2.701c1.484,0,2.599-0.077,3.341-0.234
	c0.742-0.157,1.387-0.424,1.94-0.794c0.746-0.508,1.304-1.137,1.677-1.891c0.373-0.754,0.562-1.631,0.562-2.633
	c0-0.998-0.189-1.876-0.562-2.63c-0.373-0.753-0.931-1.382-1.677-1.89c-0.557-0.37-1.23-0.637-2.005-0.794
	c-0.779-0.157-2-0.234-3.655-0.234h-1.161h-1.162V342.916L282.855,342.916z M279.643,345.22v-15.687h4.332
	c2.82,0,4.802,0.113,5.949,0.337c1.148,0.227,2.153,0.603,3.019,1.13c1.143,0.695,2.01,1.583,2.599,2.67
	c0.59,1.086,0.885,2.326,0.885,3.716c0,1.393-0.295,2.63-0.885,3.705c-0.59,1.075-1.457,1.96-2.599,2.663
	c-0.866,0.527-1.848,0.903-2.949,1.13c-1.106,0.223-2.82,0.336-5.152,0.336h-0.867H279.643L279.643,345.22z M300.109,345.22v-15.687
	h11.033v2.165h-7.82v3.932h7.82v2.238h-7.82v5.069h7.82v2.282H300.109L300.109,345.22z M318.036,336.219h0.581
	c1.7,0,2.829-0.157,3.387-0.472c0.557-0.315,0.839-0.871,0.839-1.672c0-0.863-0.3-1.47-0.899-1.825
	c-0.599-0.355-1.71-0.53-3.327-0.53h-0.581V336.219L318.036,336.219z M317.833,338.202v7.018h-3.01v-15.687h4.48
	c1.314,0,2.337,0.07,3.06,0.205c0.724,0.135,1.341,0.358,1.858,0.673c0.613,0.38,1.083,0.871,1.419,1.47
	c0.332,0.6,0.498,1.254,0.498,1.971c0,1.255-0.382,2.238-1.147,2.952c-0.765,0.71-1.899,1.137-3.392,1.28l6.807,7.136h-3.632
	l-6.576-7.018H317.833L317.833,338.202z M334.479,339.057h5.507l-2.023-3.577c-0.116-0.23-0.24-0.494-0.364-0.79
	c-0.124-0.296-0.254-0.625-0.378-0.991c-0.11,0.344-0.221,0.666-0.345,0.962c-0.12,0.296-0.244,0.567-0.368,0.819L334.479,339.057
	L334.479,339.057z M343.364,345.22h3.387l-9.558-16.308l-9.572,16.308H331l2.295-4.041h7.825L343.364,345.22L343.364,345.22z
	 M348.618,345.22v-15.687h3.212v13.404h7.185v2.282H348.618L348.618,345.22z M373.176,342.916h2.7c1.484,0,2.599-0.077,3.341-0.234
	c0.742-0.157,1.387-0.424,1.94-0.794c0.747-0.508,1.305-1.137,1.678-1.891c0.373-0.754,0.562-1.631,0.562-2.633
	c0-0.998-0.189-1.876-0.562-2.63c-0.373-0.753-0.931-1.382-1.678-1.89c-0.557-0.37-1.23-0.637-2.004-0.794
	c-0.779-0.157-2-0.234-3.655-0.234h-1.161h-1.162V342.916L373.176,342.916z M369.964,345.22v-15.687h4.332
	c2.82,0,4.802,0.113,5.949,0.337c1.148,0.227,2.152,0.603,3.018,1.13c1.143,0.695,2.01,1.583,2.6,2.67
	c0.59,1.086,0.885,2.326,0.885,3.716c0,1.393-0.295,2.63-0.885,3.705c-0.59,1.075-1.457,1.96-2.6,2.663
	c-0.866,0.527-1.848,0.903-2.949,1.13c-1.106,0.223-2.82,0.336-5.152,0.336h-0.866H369.964L369.964,345.22z M407.348,337.408
	c0-0.79-0.184-1.543-0.548-2.26c-0.364-0.713-0.885-1.35-1.572-1.905c-0.664-0.552-1.438-0.973-2.313-1.269
	c-0.88-0.296-1.802-0.446-2.775-0.446s-1.899,0.147-2.774,0.439c-0.876,0.292-1.659,0.717-2.341,1.276
	c-0.682,0.548-1.207,1.181-1.567,1.894c-0.359,0.717-0.539,1.474-0.539,2.271c0,0.794,0.18,1.544,0.539,2.253
	c0.36,0.706,0.885,1.339,1.567,1.895c0.682,0.559,1.461,0.984,2.337,1.276c0.871,0.293,1.797,0.439,2.779,0.439
	c0.963,0,1.88-0.146,2.747-0.439c0.866-0.292,1.65-0.717,2.341-1.276c0.687-0.556,1.207-1.189,1.572-1.902
	C407.164,338.944,407.348,338.194,407.348,337.408L407.348,337.408z M410.698,337.408c0,1.116-0.263,2.169-0.788,3.16
	c-0.53,0.995-1.295,1.88-2.304,2.659c-1.019,0.779-2.166,1.375-3.443,1.789c-1.276,0.413-2.617,0.622-4.023,0.622
	c-1.424,0-2.779-0.209-4.069-0.625c-1.295-0.421-2.433-1.013-3.424-1.785c-1.01-0.779-1.775-1.66-2.295-2.648
	c-0.521-0.984-0.784-2.041-0.784-3.171c0-1.123,0.263-2.18,0.784-3.171c0.521-0.995,1.285-1.884,2.295-2.67
	c1.009-0.779,2.152-1.371,3.428-1.777c1.277-0.406,2.631-0.611,4.065-0.611c1.424,0,2.77,0.205,4.042,0.611
	c1.277,0.406,2.415,0.998,3.424,1.777c1.009,0.794,1.774,1.69,2.304,2.685C410.435,335.25,410.698,336.3,410.698,337.408
	L410.698,337.408z M425.939,336.091h0.825c1.784,0,2.972-0.154,3.567-0.461c0.594-0.307,0.889-0.849,0.889-1.627
	c0-0.838-0.318-1.426-0.954-1.767c-0.632-0.344-1.802-0.516-3.503-0.516h-0.825V336.091L425.939,336.091z M425.736,338.179v7.041
	h-3.009v-15.687h4.862c1.437,0,2.498,0.062,3.18,0.186c0.677,0.124,1.272,0.333,1.775,0.618c0.622,0.362,1.111,0.855,1.461,1.47
	c0.35,0.618,0.525,1.298,0.525,2.044c0,0.742-0.175,1.426-0.525,2.055c-0.35,0.629-0.839,1.123-1.461,1.478
	c-0.502,0.285-1.097,0.49-1.775,0.611c-0.682,0.12-1.742,0.182-3.18,0.182h-0.636H425.736L425.736,338.179z M440.1,339.057h5.507
	l-2.023-3.577c-0.115-0.23-0.24-0.494-0.364-0.79c-0.124-0.296-0.254-0.625-0.378-0.991c-0.111,0.344-0.221,0.666-0.346,0.962
	c-0.12,0.296-0.244,0.567-0.368,0.819L440.1,339.057L440.1,339.057z M448.986,345.22h3.387l-9.558-16.308l-9.572,16.308h3.378
	l2.295-4.041h7.825L448.986,345.22L448.986,345.22z M457.451,336.219h0.581c1.7,0,2.829-0.157,3.387-0.472
	c0.558-0.315,0.839-0.871,0.839-1.672c0-0.863-0.3-1.47-0.899-1.825c-0.599-0.355-1.71-0.53-3.327-0.53h-0.581V336.219
	L457.451,336.219z M457.249,338.202v7.018h-3.01v-15.687h4.48c1.314,0,2.336,0.07,3.06,0.205c0.723,0.135,1.341,0.358,1.857,0.673
	c0.613,0.38,1.083,0.871,1.419,1.47c0.332,0.6,0.498,1.254,0.498,1.971c0,1.255-0.382,2.238-1.147,2.952
	c-0.766,0.71-1.899,1.137-3.392,1.28l6.807,7.136h-3.632l-6.576-7.018H457.249L457.249,338.202z M473.894,339.057h5.507
	l-2.023-3.577c-0.115-0.23-0.24-0.494-0.364-0.79c-0.124-0.296-0.253-0.625-0.378-0.991c-0.111,0.344-0.221,0.666-0.345,0.962
	c-0.12,0.296-0.244,0.567-0.369,0.819L473.894,339.057L473.894,339.057z M482.78,345.22h3.387l-9.558-16.308l-9.572,16.308h3.378
	l2.295-4.041h7.826L482.78,345.22L482.78,345.22z M488.033,345.22v-16.308l12.553,9.59c0.346,0.271,0.691,0.56,1.042,0.867
	c0.35,0.307,0.719,0.655,1.106,1.042v-10.877h2.972v16.297l-12.811-9.761c-0.341-0.264-0.673-0.541-0.991-0.834
	c-0.323-0.296-0.627-0.6-0.913-0.921v10.906H488.033L488.033,345.22z M514.412,339.057h5.507l-2.023-3.577
	c-0.115-0.23-0.24-0.494-0.364-0.79c-0.125-0.296-0.253-0.625-0.378-0.991c-0.111,0.344-0.222,0.666-0.346,0.962
	c-0.12,0.296-0.244,0.567-0.368,0.819L514.412,339.057L514.412,339.057z M523.297,345.22l-2.244-4.041h-7.826l-2.295,4.041h-3.378
	l9.572-16.308l9.558,16.308H523.297L523.297,345.22z M515.223,327.99l2.567-2.915h3.037l-3.945,2.915H515.223z"/>
<rect x="59.938" y="87.147" fill-rule="evenodd" clip-rule="evenodd" fill="#FFFFFF" width="12.317" height="2.215"/>
<rect x="501.888" y="87.147" fill-rule="evenodd" clip-rule="evenodd" fill="#FFFFFF" width="12.318" height="2.215"/>
<rect x="59.938" y="153.17" fill-rule="evenodd" clip-rule="evenodd" fill="#FFFFFF" width="12.317" height="2.215"/>
<rect x="501.888" y="153.17" fill-rule="evenodd" clip-rule="evenodd" fill="#FFFFFF" width="12.318" height="2.215"/>
<rect x="81.121" y="87.147" fill-rule="evenodd" clip-rule="evenodd" fill="#FFFFFF" width="12.321" height="2.215"/>
<rect x="480.7" y="87.147" fill-rule="evenodd" clip-rule="evenodd" fill="#FFFFFF" width="12.32" height="2.215"/>
<rect x="81.121" y="153.17" fill-rule="evenodd" clip-rule="evenodd" fill="#FFFFFF" width="12.321" height="2.215"/>
<rect x="480.7" y="153.17" fill-rule="evenodd" clip-rule="evenodd" fill="#FFFFFF" width="12.32" height="2.215"/>
<rect x="102.309" y="87.147" fill-rule="evenodd" clip-rule="evenodd" fill="#FFFFFF" width="12.318" height="2.215"/>
<rect x="459.518" y="87.147" fill-rule="evenodd" clip-rule="evenodd" fill="#FFFFFF" width="12.316" height="2.215"/>
<rect x="102.309" y="153.17" fill-rule="evenodd" clip-rule="evenodd" fill="#FFFFFF" width="12.318" height="2.215"/>
<rect x="459.518" y="153.17" fill-rule="evenodd" clip-rule="evenodd" fill="#FFFFFF" width="12.316" height="2.215"/>
<rect x="123.498" y="87.147" fill-rule="evenodd" clip-rule="evenodd" fill="#FFFFFF" width="12.316" height="2.215"/>
<rect x="438.331" y="87.147" fill-rule="evenodd" clip-rule="evenodd" fill="#FFFFFF" width="12.316" height="2.215"/>
<rect x="123.498" y="153.17" fill-rule="evenodd" clip-rule="evenodd" fill="#FFFFFF" width="12.316" height="2.215"/>
<rect x="438.331" y="153.17" fill-rule="evenodd" clip-rule="evenodd" fill="#FFFFFF" width="12.316" height="2.215"/>
<rect x="144.682" y="87.147" fill-rule="evenodd" clip-rule="evenodd" fill="#FFFFFF" width="12.563" height="2.215"/>
<rect x="416.898" y="87.147" fill-rule="evenodd" clip-rule="evenodd" fill="#FFFFFF" width="12.561" height="2.215"/>
<rect x="144.682" y="153.17" fill-rule="evenodd" clip-rule="evenodd" fill="#FFFFFF" width="12.563" height="2.215"/>
<rect x="416.898" y="153.17" fill-rule="evenodd" clip-rule="evenodd" fill="#FFFFFF" width="12.561" height="2.215"/>
<rect x="165.868" y="87.147" fill-rule="evenodd" clip-rule="evenodd" fill="#FFFFFF" width="12.318" height="2.215"/>
<rect x="395.958" y="87.147" fill-rule="evenodd" clip-rule="evenodd" fill="#FFFFFF" width="12.317" height="2.215"/>
<rect x="165.868" y="153.17" fill-rule="evenodd" clip-rule="evenodd" fill="#FFFFFF" width="12.318" height="2.215"/>
<rect x="395.958" y="153.17" fill-rule="evenodd" clip-rule="evenodd" fill="#FFFFFF" width="12.317" height="2.215"/>
<rect x="293.265" y="87.393" fill-rule="evenodd" clip-rule="evenodd" fill="#FFFFFF" width="13.547" height="2.218"/>
<rect x="295.73" y="90.597" fill-rule="evenodd" clip-rule="evenodd" fill="#FFFFFF" width="8.866" height="1.723"/>
<g>
	<rect x="206.269" y="67.686" fill-rule="evenodd" clip-rule="evenodd" fill="#FFFFFF" width="161.853" height="2.463"/>
	<path fill-rule="evenodd" clip-rule="evenodd" fill="#FFFFFF" d="M390.767,84.169v-8.624l-26.297,0.022v8.615L390.767,84.169
		L390.767,84.169z M383.377,73.083l44.608-15.743h-70.213l15.026,5.174v2.462H201.589v-2.462l15.028-5.174h-19.954h-31.534h-18.967
		l18.967,6.649l25.865,9.118L383.377,73.083L383.377,73.083z M390.27,73.083l64.816-22.641l64.784,22.664L390.27,73.083
		L390.27,73.083z M393.231,75.544v8.624l61.854,0.021h62.075v-8.623L393.231,75.544L393.231,75.544z M287.319,86.644v0.012H165.129
		l0,0H47.375V84.19h7.39v-8.623h-7.39v-2.461L92.456,57.34H47.375v-2.219h51.487l20.201-7.144l0,0h0.243l20.202,7.144h25.621l0,0
		h31.534l0,0h26.605l64.051-22.663l0,0h0.246l63.802,22.663h57.896l0,0h25.37l20.453-7.389l20.195,7.389h51.49v2.219h-44.836
		l44.836,15.766v2.461h-7.139v8.623h7.382v2.466h-71.927l0,0L287.319,86.644L287.319,86.644z M287.115,84.19v-0.008h75.133v-8.615
		H212.185v8.623H287.115L287.115,84.19z M365.903,62.514H208.488l78.831-27.347l0.246-0.248L365.903,62.514L365.903,62.514z
		 M287.319,86.656L287.319,86.656L287.319,86.656z M209.965,84.19v-8.623h-26.361v8.623H209.965L209.965,84.19z M165.129,84.19
		h16.014v-8.623h-16.014H56.981v8.623H165.129L165.129,84.19z M165.129,73.106L165.129,73.106H54.025l65.039-22.664h0.243
		l45.823,16.01l18.97,6.654H165.129L165.129,73.106z M47.375,55.121"/>
</g>
<rect x="216.488" y="87.389" fill-rule="evenodd" clip-rule="evenodd" fill="#FFFFFF" width="13.548" height="2.217"/>
<rect x="218.705" y="90.592" fill-rule="evenodd" clip-rule="evenodd" fill="#FFFFFF" width="9.116" height="1.724"/>
<rect x="293.191" y="87.389" fill-rule="evenodd" clip-rule="evenodd" fill="#FFFFFF" width="13.551" height="2.217"/>
<rect x="295.41" y="90.592" fill-rule="evenodd" clip-rule="evenodd" fill="#FFFFFF" width="9.116" height="1.724"/>
<rect x="319.005" y="87.389" fill-rule="evenodd" clip-rule="evenodd" fill="#FFFFFF" width="13.55" height="2.217"/>
<rect x="321.223" y="90.592" fill-rule="evenodd" clip-rule="evenodd" fill="#FFFFFF" width="9.113" height="1.724"/>
<rect x="267.748" y="87.576" fill-rule="evenodd" clip-rule="evenodd" fill="#FFFFFF" width="13.3" height="2.217"/>
<rect x="269.961" y="90.778" fill-rule="evenodd" clip-rule="evenodd" fill="#FFFFFF" width="8.868" height="1.724"/>
<rect x="242.104" y="87.468" fill-rule="evenodd" clip-rule="evenodd" fill="#FFFFFF" width="13.301" height="2.216"/>
<rect x="244.318" y="90.669" fill-rule="evenodd" clip-rule="evenodd" fill="#FFFFFF" width="8.867" height="1.724"/>
<rect x="344.594" y="87.389" fill-rule="evenodd" clip-rule="evenodd" fill="#FFFFFF" width="13.3" height="2.217"/>
<rect x="346.811" y="90.592" fill-rule="evenodd" clip-rule="evenodd" fill="#FFFFFF" width="8.867" height="1.724"/>
<rect x="214.669" y="176.319" fill-rule="evenodd" clip-rule="evenodd" fill="#FFFFFF" width="17.242" height="2.22"/>
<rect x="291.372" y="176.319" fill-rule="evenodd" clip-rule="evenodd" fill="#FFFFFF" width="17.241" height="2.22"/>
<rect x="317.184" y="176.319" fill-rule="evenodd" clip-rule="evenodd" fill="#FFFFFF" width="17.242" height="2.22"/>
<rect x="265.774" y="176.507" fill-rule="evenodd" clip-rule="evenodd" fill="#FFFFFF" width="17.245" height="2.219"/>
<rect x="240.129" y="176.4" fill-rule="evenodd" clip-rule="evenodd" fill="#FFFFFF" width="17.247" height="2.218"/>
<rect x="342.621" y="176.32" fill-rule="evenodd" clip-rule="evenodd" fill="#FFFFFF" width="17.244" height="2.219"/>
<g>
	<path fill-rule="evenodd" clip-rule="evenodd" fill="#FFFFFF" d="M375.759,189.629v5.175H198.634v-5.175H375.759L375.759,189.629z
		 M219.174,94.94v25.218h-42.218V90.104h-9.61v30.054h-11.577V90.104h-9.606v30.054H134.58V90.104h-9.605v30.054h-11.825V90.104
		h-9.363v30.054H92.21V90.104h-9.855v30.054H70.781V90.104h-9.613v30.054H47.375v2.219h13.792v30.052h9.613v-30.052h11.574v30.052
		h9.855v-30.052h11.576v30.052h9.363v-30.052h11.825v30.052h9.605v-30.052h11.583v30.052h9.606v-30.052h11.577v30.052h9.61v-30.052
		l42.218,0v33.503H47.375v2.463h133.768v12.809H47.375v2.218h133.768v14.042H47.375v2.217h133.768v12.81H47.375v2.464h133.768v5.418
		H47.375v3.94h479.394v-3.94H392.999v-5.418H526.77v-2.464H392.999v-12.81H526.77v-2.217H392.999V173.37H526.77v-2.218H392.999
		v-12.809H526.77v-2.463H355.109v-33.467l0.001-0.036h42.08v30.052h9.604v-30.052h11.579v30.052h4.927h4.685v-30.052h11.575v30.052
		c3.285,0,6.57,0,9.855,0v-30.052h11.579v30.052h4.682h4.681v-30.052h11.578v30.052h4.926h4.925v-30.052h11.581v30.052h4.68h4.932
		v-30.052h13.791v-2.219h-13.791V90.104h-4.932h-4.68v30.054h-11.581V90.104h-4.925h-4.926v30.054h-11.578V90.104h-4.681h-4.682
		v30.054h-11.579V90.104c-3.285,0-6.571,0-9.855,0v30.054h-11.575V90.104h-4.685h-4.927v30.054h-11.579V90.104h-9.604l0,30.071
		h-42.08v-0.018l-0.001-25.218h-7.923v25.257h-17.324V94.94h-8.49v25.257h-17.324V94.94h-8.243v25.257h-17.324V94.94h-8.319v25.257
		h-17.268V94.94h-8.171v25.257h-17.376V94.94H219.174L219.174,94.94z M355.109,158.343v15.755h-7.923V158.36h-17.324v15.738h-8.49
		V158.36h-17.324v15.738h-8.243V158.36h-17.324v15.738h-8.319V158.36h-17.268v15.738h-8.171V158.36h-17.376v15.738h-8.173v-15.755
		h-35.569v44.096h5.176v-7.635h7.634v-7.393h15.555h166.004v7.393h7.88v7.635h4.934v-44.096H355.109L355.109,158.343z
		 M383.392,197.266v5.174H190.994v-5.174H383.392L383.392,197.266z M390.788,204.903v5.418H183.605v-5.418H390.788L390.788,204.903z
		 M486.86,92.567h2.462v57.647h-2.462h-2.462V92.567H486.86L486.86,92.567z M508.046,150.214L508.046,150.214l-2.462,0V92.567h2.462
		h2.465v57.647L508.046,150.214L508.046,150.214z M465.676,92.567h2.464v57.647h-2.464h-2.464V92.567H465.676L465.676,92.567z
		 M442.024,92.567c1.643,0,3.287,0,4.93,0v57.647c-1.643,0-3.286,0-4.93,0V92.567L442.024,92.567z M423.299,92.567h2.467v57.647
		l-2.467,0v0h-2.462V92.567H423.299L423.299,92.567z M399.653,92.567h4.924v57.647h-4.924V92.567L399.653,92.567z M219.174,122.377
		v-2.219V122.377L219.174,122.377z M174.489,92.567v57.647h-4.924V92.567H174.489L174.489,92.567z M153.305,92.567v57.647h-4.926
		V92.567H153.305L153.305,92.567z M127.192,150.214V92.567h4.924v57.647H127.192L127.192,150.214z M110.93,92.567v57.647h-4.924
		V92.567H110.93L110.93,92.567z M89.747,92.567v57.647H84.82V92.567H89.747L89.747,92.567z M63.635,150.214V92.567h4.923v57.647
		H63.635L63.635,150.214z M221.641,97.567h3.239v74.316h-3.239V97.567L221.641,97.567z M247.107,97.567h3.264v74.316h-3.264V97.567
		L247.107,97.567z M272.629,97.567h3.384v74.316h-3.384V97.567L272.629,97.567z M298.273,97.567h3.308v74.316h-3.308V97.567
		L298.273,97.567z M323.84,97.567h3.555v74.316h-3.555V97.567L323.84,97.567z M349.654,97.567h2.988v74.316h-2.988V97.567
		L349.654,97.567z M227.347,122.413h17.376v33.467h-17.376V122.413L227.347,122.413z M252.894,122.413h17.268v33.467h-17.268
		V122.413L252.894,122.413z M278.481,122.413h17.324v33.467h-17.324V122.413L278.481,122.413z M304.048,122.413h17.324v33.467
		h-17.324V122.413L304.048,122.413z M329.862,122.413h17.324v33.467h-17.324V122.413z"/>
</g>
<path fill-rule="evenodd" clip-rule="evenodd" fill="#FFFFFF" d="M212.585,180.651h21.406v6.761l-21.406,0.001V180.651
	L212.585,180.651z M214.803,182.869v2.326h16.971v-2.326H214.803z"/>
<path fill-rule="evenodd" clip-rule="evenodd" fill="#FFFFFF" d="M238.048,180.651h21.406v6.761l-21.406,0.001V180.651
	L238.048,180.651z M240.266,182.869v2.326h16.971v-2.326H240.266z"/>
<path fill-rule="evenodd" clip-rule="evenodd" fill="#FFFFFF" d="M263.692,180.706h21.406v6.761l-21.406,0.001V180.706
	L263.692,180.706z M265.91,182.924v2.326h16.971v-2.326H265.91z"/>
<path fill-rule="evenodd" clip-rule="evenodd" fill="#FFFFFF" d="M289.291,180.651h21.406v6.761l-21.406,0.001V180.651
	L289.291,180.651z M291.508,182.869v2.326h16.971v-2.326H291.508z"/>
<path fill-rule="evenodd" clip-rule="evenodd" fill="#FFFFFF" d="M315.104,180.651h21.406v6.761l-21.406,0.001V180.651
	L315.104,180.651z M317.321,182.869v2.326h16.971v-2.326H317.321z"/>
<path fill-rule="evenodd" clip-rule="evenodd" fill="#FFFFFF" d="M340.537,180.651h21.406v6.761l-21.406,0.001V180.651
	L340.537,180.651z M342.754,182.869v2.326h16.971v-2.326H342.754z"/>
</svg>
